#!OML:ASF E:\motion texture\Top Level 1\Subject 1\Session 1\male.ASF
:FULLY-SPECIFIED
:DEGREES
317
root -12.8004 18.0696 4.103 578.709 -87.2644 -583.315
lowerback 5.89263 -5.71674 -4.31879
upperback -0.533717 -7.88132 1.65471
thorax -3.02404 -3.84634 4.72268
lowerneck -18.0909 -0.0382049 -2.99019
upperneck 14.7527 -0.157007 4.61238
head 7.51691 0.19273 1.99215
rclavicle 2.73577e-014 1.19271e-014
rhumerus -60.191 1.40012 -69.3536
rradius 54.3462
rwrist -2.88372
rhand -7.53466 -8.24877
rfingers 7.12502
rthumb 18.3565 -37.4026
lclavicle 2.73577e-014 1.19271e-014
lhumerus -5.35022 -7.24608 83.9636
lradius 69.5948
lwrist 3.30264
lhand -10.4611 2.97168
lfingers 7.12502
lthumb 15.5396 32.3673
rfemur -81.6479 -4.86569 23.5622
rtibia 88.2346
rfoot 384.066 -69.7692
rtoes 37.4061
lfemur 10.0807 -5.65374 -26.8577
ltibia 18.9176
lfoot 527.327 175.907
ltoes -4.29783
318
root -12.926 18.0687 4.09109 579.614 -87.182 -583.8
lowerback 5.54632 -5.6762 -4.32764
upperback -0.698134 -7.81444 1.67384
thorax -3.00484 -3.81 4.71415
lowerneck -18.0755 -0.055867 -3.00568
upperneck 14.7819 -0.175411 4.59618
head 7.52464 0.1813 1.98743
rclavicle 5.37464e-014 -1.19271e-014
rhumerus -59.9414 1.38649 -69.5834
rradius 54.5967
rwrist -2.94601
rhand -7.6674 -8.33163
rfingers 7.12502
rthumb 18.2288 -37.4975
lclavicle 5.37464e-014 -1.19271e-014
lhumerus -5.90293 -7.26325 84.1119
lradius 69.5288
lwrist 3.36041
lhand -10.4357 3.02907
lfingers 7.12502
lthumb 15.5641 32.4228
rfemur -80.5114 -4.9299 23.4635
rtibia 87.1243
rfoot 387.241 -60.9068
rtoes 36.6928
lfemur 10.0977 -5.63765 -26.8772
ltibia 18.8485
lfoot 527.367 175.781
ltoes -4.95091
319
root -13.0525 18.0673 4.07846 581.285 -87.1159 -585.045
lowerback 5.20388 -5.63971 -4.36403
upperback -0.864211 -7.75537 1.68682
thorax -2.98582 -3.7772 4.71574
lowerneck -18.0762 -0.0779567 -3.0232
upperneck 14.8122 -0.202959 4.60068
head 7.53588 0.167555 1.98897
rclavicle -5.65791e-014 2.38542e-015
rhumerus -59.6579 1.39662 -69.8628
rradius 54.8656
rwrist -3.03907
rhand -7.81087 -8.41416
rfingers 7.12502
rthumb 18.0908 -37.5928
lclavicle -5.65791e-014 2.38542e-015
lhumerus -6.47837 -7.32189 84.2622
lradius 69.4676
lwrist 3.38085
lhand -10.4106 3.09301
lfingers 7.12502
lthumb 15.5882 32.4849
rfemur -79.2797 -5.04305 23.2964
rtibia 85.7094
rfoot 389.047 -51.9893
rtoes 36.1098
lfemur 10.1295 -5.64812 -26.9267
ltibia 18.7508
lfoot 527.413 175.677
ltoes -5.62931
320
root -13.1798 18.065 4.06477 583.555 -87.0821 -586.886
lowerback 4.86539 -5.61249 -4.41543
upperback -1.02965 -7.70991 1.70019
thorax -2.96481 -3.75114 4.72735
lowerneck -18.0872 -0.103169 -3.0405
upperneck 14.8363 -0.237017 4.61912
head 7.54719 0.152184 1.99435
rclavicle 6.2816e-014 -7.95139e-015
rhumerus -59.3385 1.43331 -70.1894
rradius 55.1543
rwrist -3.16217
rhand -7.96188 -8.48841
rfingers 7.12502
rthumb 17.9455 -37.6805
lclavicle 6.2816e-014 -7.95139e-015
lhumerus -7.076 -7.42334 84.4108
lradius 69.417
lwrist 3.37898
lhand -10.3918 3.16206
lfingers 7.12502
lthumb 15.6064 32.5525
rfemur -77.9532 -5.2023 23.0788
rtibia 84.0414
rfoot 390.27 -43.0322
rtoes 35.6188
lfemur 10.1536 -5.67503 -26.9711
ltibia 18.6647
lfoot 527.449 175.568
ltoes -6.29726
321
root -13.3083 18.0615 4.0499 586.224 -87.0897 -589.126
lowerback 4.52851 -5.59417 -4.46166
upperback -1.1887 -7.67602 1.71556
thorax -2.93715 -3.73143 4.73877
lowerneck -18.1059 -0.130728 -3.06184
upperneck 14.8454 -0.276897 4.66079
head 7.55521 0.136137 2.0073
rclavicle 3.31473e-014 -7.15625e-015
rhumerus -58.9782 1.48435 -70.557
rradius 55.4611
rwrist -3.29026
rhand -8.09791 -8.52538
rfingers 7.12502
rthumb 17.8146 -37.7294
lclavicle 3.31473e-014 -7.15625e-015
lhumerus -7.69528 -7.58024 84.5538
lradius 69.3846
lwrist 3.3707
lhand -10.3793 3.23263
lfingers 7.12502
lthumb 15.6183 32.6221
rfemur -76.524 -5.39887 22.8293
rtibia 82.1857
rfoot 391.163 -34.0569
rtoes 35.209
lfemur 10.1867 -5.72557 -26.9915
ltibia 18.5736
lfoot 527.487 175.454
ltoes -6.88719
322
root -13.4379 18.0566 4.03389 589.114 -87.1501 -591.591
lowerback 4.19562 -5.58455 -4.48753
upperback -1.34106 -7.65252 1.74204
thorax -2.90467 -3.71769 4.75118
lowerneck -18.1479 -0.163418 -3.10186
upperneck 14.8609 -0.324126 4.73196
head 7.56972 0.118659 2.03249
rclavicle -3.47873e-014 9.54166e-015
rhumerus -58.5792 1.55486 -70.9587
rradius 55.782
rwrist -3.43441
rhand -8.25708 -8.4955
rfingers 7.12502
rthumb 17.6615 -37.7134
lclavicle -3.47873e-014 9.54166e-015
lhumerus -8.3288 -7.79011 84.6975
lradius 69.3608
lwrist 3.37046
lhand -10.3451 3.31323
lfingers 7.12502
lthumb 15.6513 32.7001
rfemur -74.9857 -5.61905 22.5686
rtibia 80.2319
rfoot 391.828 -25.0726
rtoes 34.8533
lfemur 10.2268 -5.79216 -26.9588
ltibia 18.4878
lfoot 527.515 175.323
ltoes -7.40281
323
root -13.569 18.0501 4.01702 592.365 -87.2592 -594.424
lowerback 3.86786 -5.58115 -4.48586
upperback -1.49061 -7.63609 1.77626
thorax -2.87376 -3.70811 4.75739
lowerneck -18.2 -0.202712 -3.15688
upperneck 14.8789 -0.381114 4.82837
head 7.58742 0.0982333 2.0675
rclavicle -1.5207e-014 -5.56597e-015
rhumerus -58.1573 1.63821 -71.3893
rradius 56.1225
rwrist -3.55986
rhand -8.45014 -8.4152
rfingers 7.12502
rthumb 17.4757 -37.6497
lclavicle -1.5207e-014 -5.56597e-015
lhumerus -8.98656 -8.06657 84.8426
lradius 69.3449
lwrist 3.38674
lhand -10.3014 3.40202
lfingers 7.12502
lthumb 15.6934 32.7856
rfemur -73.3407 -5.85684 22.2982
rtibia 78.2904
rfoot 392.328 -16.0926
rtoes 34.5246
lfemur 10.2653 -5.86588 -26.8731
ltibia 18.4269
lfoot 527.527 175.164
ltoes -7.83983
